<svg width="42" height="12" viewBox="0 0 42 12" fill="none" xmlns="http://www.w3.org/2000/svg">
<path d="M6.8 5.63209C7.45066 5.77076 7.97333 6.09609 8.368 6.60809C8.76266 7.10942 8.96 7.68542 8.96 8.33609C8.96 9.27476 8.62933 10.0214 7.968 10.5761C7.31733 11.1201 6.40533 11.3921 5.232 11.3921H-4.35114e-06V0.160089H5.056C6.19733 0.160089 7.088 0.421423 7.728 0.944089C8.37866 1.46676 8.704 2.17609 8.704 3.07209C8.704 3.73342 8.528 4.28276 8.176 4.72009C7.83466 5.15742 7.376 5.46142 6.8 5.63209ZM2.736 4.70409H4.528C4.976 4.70409 5.31733 4.60809 5.552 4.41609C5.79733 4.21342 5.92 3.92009 5.92 3.53609C5.92 3.15209 5.79733 2.85876 5.552 2.65609C5.31733 2.45342 4.976 2.35209 4.528 2.35209H2.736V4.70409ZM4.752 9.18409C5.21066 9.18409 5.56266 9.08276 5.808 8.88009C6.064 8.66676 6.192 8.36276 6.192 7.96809C6.192 7.57342 6.05866 7.26409 5.792 7.04009C5.536 6.81609 5.17866 6.70409 4.72 6.70409H2.736V9.18409H4.752ZM13.2829 9.28009H16.8669V11.3921H10.5469V0.160089H13.2829V9.28009ZM23.4839 11.5041C22.4279 11.5041 21.4572 11.2588 20.5719 10.7681C19.6972 10.2774 18.9985 9.59476 18.4759 8.72009C17.9639 7.83476 17.7079 6.84276 17.7079 5.74409C17.7079 4.64542 17.9639 3.65876 18.4759 2.78409C18.9985 1.90942 19.6972 1.22676 20.5719 0.73609C21.4572 0.245423 22.4279 8.96454e-05 23.4839 8.96454e-05C24.5399 8.96454e-05 25.5052 0.245423 26.3799 0.73609C27.2652 1.22676 27.9585 1.90942 28.4599 2.78409C28.9719 3.65876 29.2279 4.64542 29.2279 5.74409C29.2279 6.84276 28.9719 7.83476 28.4599 8.72009C27.9479 9.59476 27.2545 10.2774 26.3799 10.7681C25.5052 11.2588 24.5399 11.5041 23.4839 11.5041ZM23.4839 9.00809C24.3799 9.00809 25.0945 8.70942 25.6279 8.11209C26.1719 7.51476 26.4439 6.72542 26.4439 5.74409C26.4439 4.75209 26.1719 3.96276 25.6279 3.37609C25.0945 2.77876 24.3799 2.48009 23.4839 2.48009C22.5772 2.48009 21.8519 2.77342 21.3079 3.36009C20.7745 3.94676 20.5079 4.74142 20.5079 5.74409C20.5079 6.73609 20.7745 7.53076 21.3079 8.12809C21.8519 8.71476 22.5772 9.00809 23.4839 9.00809ZM38.206 3.71209C38.0033 3.33876 37.71 3.05609 37.326 2.86409C36.9527 2.66142 36.51 2.56009 35.998 2.56009C35.1127 2.56009 34.4033 2.85342 33.87 3.44009C33.3367 4.01609 33.07 4.78942 33.07 5.76009C33.07 6.79476 33.3473 7.60542 33.902 8.19209C34.4673 8.76809 35.2407 9.05609 36.222 9.05609C36.894 9.05609 37.4593 8.88542 37.918 8.54409C38.3873 8.20276 38.7287 7.71209 38.942 7.07209H35.47V5.05609H41.422V7.60009C41.2193 8.28276 40.8727 8.91742 40.382 9.50409C39.902 10.0908 39.2887 10.5654 38.542 10.9281C37.7953 11.2908 36.9527 11.4721 36.014 11.4721C34.9047 11.4721 33.9127 11.2321 33.038 10.7521C32.174 10.2614 31.4967 9.58409 31.006 8.72009C30.526 7.85609 30.286 6.86942 30.286 5.76009C30.286 4.65076 30.526 3.66409 31.006 2.80009C31.4967 1.92542 32.174 1.24809 33.038 0.768089C33.902 0.277423 34.8887 0.0320892 35.998 0.0320892C37.342 0.0320892 38.4727 0.357423 39.39 1.00809C40.318 1.65876 40.9313 2.56009 41.23 3.71209H38.206Z" fill="white"/>
</svg>
