<svg width="79" height="12" viewBox="0 0 79 12" fill="none" xmlns="http://www.w3.org/2000/svg">
<path d="M-1.51396e-05 5.76009C-1.51396e-05 4.65076 0.239985 3.66409 0.719985 2.80009C1.19998 1.92542 1.86665 1.24809 2.71999 0.768089C3.58399 0.277423 4.55999 0.0320892 5.64798 0.0320892C6.98132 0.0320892 8.12265 0.384089 9.07199 1.08809C10.0213 1.79209 10.656 2.75209 10.976 3.96809H7.96799C7.74399 3.49876 7.42399 3.14142 7.00799 2.89609C6.60265 2.65076 6.13865 2.52809 5.61598 2.52809C4.77332 2.52809 4.09065 2.82142 3.56799 3.40809C3.04532 3.99476 2.78399 4.77876 2.78399 5.76009C2.78399 6.74142 3.04532 7.52542 3.56799 8.11209C4.09065 8.69876 4.77332 8.99209 5.61598 8.99209C6.13865 8.99209 6.60265 8.86942 7.00799 8.62409C7.42399 8.37876 7.74399 8.02142 7.96799 7.55209H10.976C10.656 8.76809 10.0213 9.72809 9.07199 10.4321C8.12265 11.1254 6.98132 11.4721 5.64798 11.4721C4.55999 11.4721 3.58399 11.2321 2.71999 10.7521C1.86665 10.2614 1.19998 9.58409 0.719985 8.72009C0.239985 7.85609 -1.51396e-05 6.86942 -1.51396e-05 5.76009ZM17.9635 11.5041C16.9075 11.5041 15.9368 11.2588 15.0515 10.7681C14.1768 10.2774 13.4782 9.59476 12.9555 8.72009C12.4435 7.83476 12.1875 6.84276 12.1875 5.74409C12.1875 4.64542 12.4435 3.65876 12.9555 2.78409C13.4782 1.90942 14.1768 1.22676 15.0515 0.73609C15.9368 0.245423 16.9075 8.96454e-05 17.9635 8.96454e-05C19.0195 8.96454e-05 19.9848 0.245423 20.8595 0.73609C21.7448 1.22676 22.4382 1.90942 22.9395 2.78409C23.4515 3.65876 23.7075 4.64542 23.7075 5.74409C23.7075 6.84276 23.4515 7.83476 22.9395 8.72009C22.4275 9.59476 21.7342 10.2774 20.8595 10.7681C19.9848 11.2588 19.0195 11.5041 17.9635 11.5041ZM17.9635 9.00809C18.8595 9.00809 19.5742 8.70942 20.1075 8.11209C20.6515 7.51476 20.9235 6.72542 20.9235 5.74409C20.9235 4.75209 20.6515 3.96276 20.1075 3.37609C19.5742 2.77876 18.8595 2.48009 17.9635 2.48009C17.0568 2.48009 16.3315 2.77342 15.7875 3.36009C15.2542 3.94676 14.9875 4.74142 14.9875 5.74409C14.9875 6.73609 15.2542 7.53076 15.7875 8.12809C16.3315 8.71476 17.0568 9.00809 17.9635 9.00809ZM35.2776 11.3921H32.5416L27.9656 4.46409V11.3921H25.2296V0.160089H27.9656L32.5416 7.12009V0.160089H35.2776V11.3921ZM45.3409 0.160089V2.35209H42.3649V11.3921H39.6289V2.35209H36.6529V0.160089H45.3409ZM53.706 9.40809H49.514L48.842 11.3921H45.978L50.042 0.160089H53.21L57.274 11.3921H54.378L53.706 9.40809ZM53.002 7.29609L51.61 3.18409L50.234 7.29609H53.002ZM58.0469 5.76009C58.0469 4.65076 58.2869 3.66409 58.7669 2.80009C59.2469 1.92542 59.9135 1.24809 60.7669 0.768089C61.6309 0.277423 62.6069 0.0320892 63.6949 0.0320892C65.0282 0.0320892 66.1695 0.384089 67.1189 1.08809C68.0682 1.79209 68.7029 2.75209 69.0229 3.96809H66.0149C65.7909 3.49876 65.4709 3.14142 65.0549 2.89609C64.6495 2.65076 64.1855 2.52809 63.6629 2.52809C62.8202 2.52809 62.1375 2.82142 61.6149 3.40809C61.0922 3.99476 60.8309 4.77876 60.8309 5.76009C60.8309 6.74142 61.0922 7.52542 61.6149 8.11209C62.1375 8.69876 62.8202 8.99209 63.6629 8.99209C64.1855 8.99209 64.6495 8.86942 65.0549 8.62409C65.4709 8.37876 65.7909 8.02142 66.0149 7.55209H69.0229C68.7029 8.76809 68.0682 9.72809 67.1189 10.4321C66.1695 11.1254 65.0282 11.4721 63.6949 11.4721C62.6069 11.4721 61.6309 11.2321 60.7669 10.7521C59.9135 10.2614 59.2469 9.58409 58.7669 8.72009C58.2869 7.85609 58.0469 6.86942 58.0469 5.76009ZM78.7784 0.160089V2.35209H75.8024V11.3921H73.0664V2.35209H70.0904V0.160089H78.7784Z" fill="white"/>
</svg>
