<svg width="78" height="12" viewBox="0 0 78 12" fill="none" xmlns="http://www.w3.org/2000/svg">
<path d="M7.312 0.160089V2.35209H2.736V4.72009H6.16V6.84809H2.736V11.3921H-4.35114e-06V0.160089H7.312ZM11.486 2.35209V4.62409H15.15V6.73609H11.486V9.20009H15.63V11.3921H8.75V0.160089H15.63V2.35209H11.486ZM24.3982 9.40809H20.2062L19.5342 11.3921H16.6702L20.7342 0.160089H23.9022L27.9662 11.3921H25.0702L24.3982 9.40809ZM23.6942 7.29609L22.3022 3.18409L20.9262 7.29609H23.6942ZM37.2831 0.160089V2.35209H34.3071V11.3921H31.5711V2.35209H28.5951V0.160089H37.2831ZM41.3442 0.160089V6.88009C41.3442 7.55209 41.5096 8.06942 41.8402 8.43209C42.1709 8.79476 42.6562 8.97609 43.2962 8.97609C43.9362 8.97609 44.4269 8.79476 44.7682 8.43209C45.1096 8.06942 45.2802 7.55209 45.2802 6.88009V0.160089H48.0162V6.86409C48.0162 7.86676 47.8029 8.71476 47.3762 9.40809C46.9496 10.1014 46.3736 10.6241 45.6482 10.9761C44.9336 11.3281 44.1336 11.5041 43.2482 11.5041C42.3629 11.5041 41.5682 11.3334 40.8642 10.9921C40.1709 10.6401 39.6216 10.1174 39.2162 9.42409C38.8109 8.72009 38.6082 7.86676 38.6082 6.86409V0.160089H41.3442ZM55.6655 11.3921L53.3295 7.15209H52.6735V11.3921H49.9375V0.160089H54.5295C55.4148 0.160089 56.1668 0.314756 56.7855 0.624089C57.4148 0.933422 57.8842 1.36009 58.1935 1.90409C58.5028 2.43742 58.6575 3.03476 58.6575 3.69609C58.6575 4.44276 58.4442 5.10942 58.0175 5.69609C57.6015 6.28276 56.9828 6.69876 56.1615 6.94409L58.7535 11.3921H55.6655ZM52.6735 5.21609H54.3695C54.8708 5.21609 55.2442 5.09342 55.4895 4.84809C55.7455 4.60276 55.8735 4.25609 55.8735 3.80809C55.8735 3.38142 55.7455 3.04542 55.4895 2.80009C55.2442 2.55476 54.8708 2.43209 54.3695 2.43209H52.6735V5.21609ZM63.111 2.35209V4.62409H66.775V6.73609H63.111V9.20009H67.255V11.3921H60.375V0.160089H67.255V2.35209H63.111ZM73.0952 11.5041C72.2739 11.5041 71.5379 11.3708 70.8872 11.1041C70.2366 10.8374 69.7139 10.4428 69.3192 9.92009C68.9352 9.39742 68.7326 8.76809 68.7112 8.03209H71.6232C71.6659 8.44809 71.8099 8.76809 72.0552 8.99209C72.3006 9.20542 72.6206 9.31209 73.0152 9.31209C73.4206 9.31209 73.7406 9.22142 73.9752 9.04009C74.2099 8.84809 74.3272 8.58676 74.3272 8.25609C74.3272 7.97876 74.2312 7.74942 74.0392 7.56809C73.8579 7.38676 73.6286 7.23742 73.3512 7.12009C73.0846 7.00276 72.7006 6.86942 72.1992 6.72009C71.4739 6.49609 70.8819 6.27209 70.4232 6.04809C69.9646 5.82409 69.5699 5.49342 69.2392 5.05609C68.9086 4.61876 68.7432 4.04809 68.7432 3.34409C68.7432 2.29876 69.1219 1.48276 69.8792 0.89609C70.6366 0.298756 71.6232 8.96454e-05 72.8392 8.96454e-05C74.0766 8.96454e-05 75.0739 0.298756 75.8312 0.89609C76.5886 1.48276 76.9939 2.30409 77.0472 3.36009H74.0872C74.0659 2.99742 73.9326 2.71476 73.6872 2.51209C73.4419 2.29876 73.1272 2.19209 72.7432 2.19209C72.4126 2.19209 72.1459 2.28276 71.9432 2.46409C71.7406 2.63476 71.6392 2.88542 71.6392 3.21609C71.6392 3.57876 71.8099 3.86142 72.1512 4.06409C72.4926 4.26676 73.0259 4.48542 73.7512 4.72009C74.4766 4.96542 75.0632 5.20009 75.5112 5.42409C75.9699 5.64809 76.3646 5.97342 76.6952 6.40009C77.0259 6.82676 77.1912 7.37609 77.1912 8.04809C77.1912 8.68809 77.0259 9.26942 76.6952 9.79209C76.3752 10.3148 75.9059 10.7308 75.2872 11.0401C74.6686 11.3494 73.9379 11.5041 73.0952 11.5041Z" fill="white"/>
</svg>
